<svg width="1288" height="1124" viewBox="0 0 1288 1124" fill="none" xmlns="http://www.w3.org/2000/svg">
<path d="M5.77631 722.755C96.1315 722.599 186.448 722.053 276.803 722.716C292.844 722.833 297.528 718.774 297.411 702.383C296.669 592.559 296.942 482.734 297.02 372.91C297.138 218.204 388.625 86.4073 533.076 29.739C577.453 12.3326 622.884 4.80025 669.916 4.68317C769.365 4.40998 868.814 3.59039 968.225 4.83928C1106.67 6.5565 1231.05 94.6812 1278.24 226.361C1283.84 241.972 1280.19 231.903 1287.61 251.729V355.387C1242.8 355.192 1197.96 355.27 1153.15 354.606C1141.79 354.45 1141.17 357.689 1143.55 368.071C1165.09 462.362 1093.98 533.627 999.683 512.083C983.642 508.415 985.632 517.235 985.632 526.485C985.632 612.268 985.554 698.012 985.671 783.795C985.749 827.779 978.646 870.788 959.794 910.362C905.737 1023.82 814.445 1085.09 689.236 1087.31C519.688 1090.32 350.024 1088.33 180.437 1087.94C108.738 1087.74 54.6813 1056.48 21.3104 992.242C11.0454 972.494 7.10334 950.678 4.52734 928.705C4.95668 860.094 5.38601 791.483 5.77631 722.872V722.755ZM1061.12 355.972C1040.51 355.582 1019.86 355.66 999.293 354.606C986.881 353.943 983.915 359.446 984.305 370.686C984.969 390.668 984.5 410.689 984.5 430.671C984.5 463.064 991.916 470.909 1024.43 473.407C1034.19 474.148 1043.71 473.017 1053.19 470.87C1078.21 465.055 1093.04 447.922 1101.9 425.207C1117.16 386.102 1097.34 352.967 1061.16 355.972H1061.12ZM941.489 347.386C941.879 307.344 942.465 267.301 942.66 227.259C942.855 181.986 942.504 136.714 942.855 91.481C942.933 79.6555 941.801 73.294 926.813 77.431C911.279 81.724 895.589 84.7682 881.89 93.8226C878.377 95.2667 874.552 96.2423 871.351 98.2718C797.857 144.949 778.108 241.816 828.457 312.69C852.734 346.879 886.339 367.524 928.023 374.784C938.913 376.696 944.494 374.667 943.128 362.646C942.543 357.572 942.035 352.499 941.489 347.386ZM1247.92 296.728C1249.24 289.859 1248.74 283.263 1244.44 277.37C1244.01 274.833 1243.54 272.258 1243.11 269.721C1243.27 268.433 1243.74 267.067 1243.47 265.896C1218.72 153.34 1111.93 59.1269 998.278 49.0968C987.662 48.1601 984.227 51.5946 984.266 61.6637C984.383 140.968 984.266 220.273 984.344 299.538C984.344 304.495 983.602 310.544 991.409 310.934C1073.72 311.285 1156 311.598 1238.31 312.144C1250.84 312.222 1249.95 305.08 1247.92 296.728ZM253.892 765.686C190.273 765.491 126.614 765.608 62.9947 764.827C49.5293 764.671 46.7972 769.979 46.9533 782.078C47.5387 824.267 46.9533 866.495 47.2265 908.684C47.5387 958.561 64.2827 999.97 109.168 1026.43C110.573 1027.48 112.017 1028.54 113.422 1029.55C115.569 1030.02 117.715 1030.45 119.862 1030.92C121.54 1032.13 123.218 1033.34 124.897 1034.59C127.668 1035.6 130.439 1036.62 133.21 1037.67C135.084 1040.71 137.816 1041.26 141.016 1040.25C143.592 1040.83 146.168 1041.42 148.705 1042C207.914 1058.9 281.291 1011.09 292.922 947.165C301.47 900.215 295.693 852.679 296.669 805.416C297.567 763.383 296.864 763.344 253.853 765.647L253.892 765.686ZM893.169 410.806C880.641 406.318 868.112 401.83 855.622 397.342C842.664 383.994 827.052 373.808 813.86 360.538C723.27 269.409 744.386 120.166 857.144 57.6048C860.735 55.6144 866.199 55.2632 866.941 47.965C837.824 47.965 809.02 47.965 780.177 47.965C736.619 48.043 693.022 46.521 649.581 48.5114C564.963 52.4141 491.626 85.0023 432.534 145.144C368.134 210.711 339.446 291.576 339.681 383.331C340.071 558.175 339.681 733.02 339.954 907.864C339.993 934.247 334.997 959.147 326.332 983.968C318.331 1006.96 303.773 1025.26 286.482 1042.74C290.151 1044.27 291.244 1045.12 292.337 1045.12C423.635 1044.54 554.933 1047.04 686.192 1043.76C736.189 1048.01 781.035 1031.58 822.017 1005.75C902.146 955.166 941.84 879.881 943.401 786.293C945.392 668.936 943.831 551.501 944.065 434.106C944.065 424.505 940.318 418.651 931.029 418.534C917.797 418.417 906.01 412.367 893.247 410.728L893.169 410.806Z" fill="#253028"/>
<path d="M686.114 1043.8C554.816 1047.08 423.518 1044.54 292.259 1045.16C291.166 1045.16 290.034 1044.31 286.404 1042.78C303.695 1025.3 318.253 1006.99 326.254 984.007C334.88 959.186 339.915 934.286 339.876 907.903C339.564 733.059 339.993 558.214 339.603 383.37C339.407 291.615 368.056 210.75 432.456 145.183C491.548 85.0024 564.925 52.4142 649.503 48.5504C692.944 46.56 736.58 48.0431 780.099 47.965C779.982 57.9561 771.356 61.937 765.696 67.7131C721.124 112.985 703.248 166.57 709.688 230.108C717.611 308.514 761.442 358.548 829.55 391.214C837.629 395.117 846.06 399.059 855.622 397.342C868.151 401.83 880.68 406.318 893.169 410.806C893.443 414.046 893.95 417.246 893.95 420.485C893.95 550.253 893.911 680.02 893.794 809.748C893.794 814.275 893.794 818.92 892.896 823.33C870.22 932.569 806.288 1004.5 699.033 1037.01C694.232 1038.45 688.338 1037.55 686.114 1043.8ZM593.065 563.132C550.249 563.132 507.433 563.561 464.656 562.858C450.8 562.624 445.023 567.737 447.404 580.967C449.395 592.051 442.213 608.287 464.539 608.131C550.171 607.545 635.765 607.389 721.397 608.287C740.99 608.482 737.673 596.774 737.673 585.495C737.673 574.294 741.302 562.117 721.514 562.702C678.737 563.99 635.921 563.093 593.104 563.093L593.065 563.132ZM593.143 878.866C550.366 878.866 507.55 879.569 464.812 878.554C444.945 878.086 449.2 890.926 449.005 901.893C448.809 913.289 445.765 924.919 465.28 924.724C550.835 923.865 636.428 923.904 721.982 924.685C742.005 924.88 737.438 912.196 737.595 901.346C737.79 890.145 741.107 877.969 721.514 878.515C678.776 879.686 635.96 878.866 593.182 878.905L593.143 878.866ZM592.402 765.139C634.594 765.139 676.824 764.281 719.016 765.569C735.721 766.076 738.805 759.519 737.751 745.274C736.892 733.137 740.444 721.545 720.031 721.819C635.647 722.911 551.225 722.872 466.841 721.819C446.858 721.584 449.59 732.707 448.809 745.274C447.912 759.715 451.346 765.998 467.778 765.53C509.306 764.32 550.874 765.139 592.441 765.139H592.402ZM613.439 448.507C649.152 448.507 684.904 447.727 720.616 448.858C737.087 449.366 738.726 441.326 737.712 428.642C736.814 417.753 741.81 405.225 721.787 405.459C649.698 406.357 577.57 406.318 505.481 405.459C488.269 405.264 488.815 414.358 488.894 426.222C488.972 438.516 487.801 449.366 506.262 448.819C541.975 447.727 577.727 448.507 613.439 448.507Z" fill="#00AACB"/>
<path d="M148.705 1042C146.129 1041.42 143.553 1040.83 141.016 1040.25C139.65 1035.68 137.933 1032.13 133.21 1037.63C130.439 1036.62 127.668 1035.6 124.897 1034.55C124.155 1032.05 122.477 1030.84 119.862 1030.88C117.715 1030.41 115.569 1029.98 113.422 1029.51C112.017 1028.46 110.573 1027.41 109.168 1026.39C64.2438 999.892 47.4998 958.483 47.2266 908.645C46.9924 866.456 47.5388 824.228 46.9534 782.039C46.7972 769.94 49.5684 764.632 62.9948 764.788C126.614 765.569 190.273 765.452 253.892 765.647C253.97 818.686 254.946 871.764 253.619 924.763C253.111 945.292 256.585 968.396 237.07 984.125C230.357 989.51 227.234 997.667 221.809 1003.52C209.241 1017.06 195.971 1030.14 175.168 1031.82C166.152 1032.52 156.121 1034.98 148.705 1042.04V1042ZM174.309 851.196C156.121 851.196 137.933 851.937 119.784 850.962C104.445 850.142 104.367 859.626 105.655 869.734C106.865 879.023 98.9027 893.736 118.457 893.619C155.458 893.424 192.458 893.697 229.459 893.502C248.857 893.385 240.349 878.242 241.637 868.993C242.885 859.86 243.276 850.415 228.796 851.001C210.646 851.703 192.458 851.157 174.27 851.157L174.309 851.196Z" fill="#0387A0"/>
<path d="M1243.12 269.721C1243.54 272.258 1244.01 274.834 1244.44 277.371C1237.03 285.332 1243.86 290.796 1247.92 296.728C1249.91 305.119 1250.8 312.222 1238.31 312.144C1156.04 311.598 1073.72 311.325 991.409 310.934C991.331 249.856 991.097 188.777 991.331 127.699C991.331 119.659 987.155 109.551 994.687 103.853C1001.21 98.8965 1007.53 107.639 1014.36 108.771C1017.52 109.317 1020.88 109.824 1024.04 109.434C1049.95 106.195 1073.45 117.161 1094.64 127.66C1144.25 152.247 1185.51 188.036 1217.9 233.894C1226.29 245.797 1230.43 260.862 1243.15 269.682L1243.12 269.721Z" fill="#EFBF68"/>
<path d="M686.114 1043.8C688.338 1037.55 694.193 1038.45 699.033 1037.01C806.288 1004.5 870.22 932.569 892.896 823.33C893.794 818.92 893.794 814.276 893.794 809.749C893.872 679.981 893.911 550.214 893.95 420.486C893.95 417.246 893.443 414.046 893.17 410.807C905.932 412.446 917.72 418.495 930.951 418.612C940.24 418.69 943.987 424.583 943.987 434.184C943.753 551.58 945.314 669.014 943.323 786.371C941.762 879.96 902.068 955.244 821.939 1005.82C780.996 1031.66 736.112 1048.05 686.114 1043.84V1043.8Z" fill="#01758A"/>
<path d="M855.584 397.342C846.021 399.059 837.63 395.078 829.511 391.215C761.403 358.548 717.572 308.515 709.649 230.108C703.209 166.571 721.085 112.986 765.658 67.7134C771.356 61.9373 779.982 57.9564 780.06 47.9653C808.903 47.9653 837.708 47.9653 866.824 47.9653C866.083 55.2635 860.618 55.6148 857.028 57.6052C744.308 120.128 723.193 269.409 813.743 360.539C826.935 373.808 842.547 384.034 855.505 397.342H855.584Z" fill="#01758A"/>
<path d="M881.851 93.7838C895.55 84.6903 911.241 81.6851 926.775 77.3921C941.762 73.2551 942.894 79.6167 942.816 91.4421C942.465 136.714 942.816 181.987 942.621 227.22C942.426 267.262 941.84 307.305 941.45 347.347C902.303 330.292 874.24 302.387 858.277 262.618C856.559 258.364 852.422 253.095 859.604 249.388C880.329 267.301 898.283 268.043 914.363 252.432C921.193 245.758 922.52 237.562 921.896 229.288C921.037 218.438 911.826 224.839 906.479 223.512C898.712 221.6 892.311 217.58 892.584 209.657C893.326 188.933 882.553 197.285 873.069 200.993C862.96 204.935 859.213 213.989 854.959 222.732C848.129 222.185 846.958 217.619 846.802 211.843C845.709 175.274 853.476 141.163 874.942 110.995C878.806 105.57 883.139 100.965 881.968 93.7447L881.851 93.7838Z" fill="#FAFBFA"/>
<path d="M1243.12 269.721C1230.39 260.901 1226.29 245.836 1217.86 233.933C1185.47 188.075 1144.21 152.248 1094.6 127.699C1073.41 117.201 1049.92 106.234 1024 109.473C1020.84 109.863 1017.52 109.317 1014.32 108.81C1007.49 107.678 1001.17 98.9356 994.648 103.892C987.154 109.59 991.331 119.698 991.292 127.738C991.057 188.817 991.292 249.895 991.37 310.973C983.564 310.583 984.305 304.534 984.305 299.577C984.227 220.273 984.383 140.968 984.227 61.7031C984.227 51.6339 987.623 48.1995 998.239 49.1361C1111.9 59.2053 1218.68 153.379 1243.43 265.935C1243.7 267.145 1243.19 268.472 1243.08 269.76L1243.12 269.721Z" fill="#DAA462"/>
<path d="M881.851 93.7837C883.022 101.004 878.689 105.609 874.825 111.034C853.398 141.202 845.592 175.313 846.684 211.882C846.841 217.658 847.882 220.507 848.909 226.361C850.47 235.259 853.203 242.87 854.764 251.729C856.715 257.583 856.559 258.403 858.237 262.657C874.162 302.387 902.264 330.331 941.411 347.386C941.957 352.46 942.465 357.572 943.05 362.646C944.416 374.706 938.835 376.696 927.946 374.784C886.222 367.486 852.656 346.879 828.379 312.691C778.03 241.777 797.74 144.949 871.274 98.2719C874.435 96.2424 878.26 95.2667 881.812 93.8227L881.851 93.7837Z" fill="#D8D9D8"/>
<path d="M148.706 1042C156.121 1034.98 166.152 1032.52 175.168 1031.78C196.01 1030.1 209.242 1017.06 221.809 1003.48C227.235 997.628 230.357 989.51 237.07 984.085C256.546 968.396 253.112 945.253 253.619 924.724C254.946 871.724 253.931 818.647 253.892 765.608C296.904 763.305 297.606 763.344 296.708 805.377C295.694 852.64 301.509 900.176 292.962 947.126C281.292 1011.05 207.954 1058.86 148.745 1041.96L148.706 1042Z" fill="#01758A"/>
<path d="M1053.15 470.831C1043.67 472.977 1034.15 474.109 1024.39 473.368C991.877 470.909 984.461 463.025 984.461 430.632C984.461 410.65 984.93 390.629 984.266 370.647C983.915 359.407 986.842 353.943 999.254 354.567C1019.82 355.621 1040.47 355.543 1061.08 355.933C1078.29 386.336 1082.93 416.973 1066.15 449.639C1062.29 457.171 1054.25 461.854 1053.12 470.792L1053.15 470.831Z" fill="#E49337"/>
<path d="M1053.15 470.831C1054.25 461.894 1062.29 457.211 1066.19 449.678C1082.97 417.012 1078.33 386.336 1061.12 355.973C1097.3 352.928 1117.13 386.102 1101.86 425.208C1093 447.883 1078.17 465.016 1053.15 470.87V470.831Z" fill="#AE732D"/>
<path d="M1247.92 296.728C1243.9 290.796 1237.03 285.371 1244.44 277.371C1248.74 283.264 1249.2 289.82 1247.92 296.728Z" fill="#DAA462"/>
<path d="M133.21 1037.67C137.933 1032.17 139.65 1035.72 141.017 1040.29C137.777 1041.3 135.084 1040.75 133.21 1037.67Z" fill="#01758A"/>
<path d="M109.207 1026.43C110.612 1027.48 112.056 1028.54 113.461 1029.55C112.056 1028.5 110.612 1027.45 109.207 1026.43Z" fill="#01758A"/>
<path d="M119.862 1030.96C122.438 1030.92 124.156 1032.09 124.897 1034.63C123.219 1033.42 121.541 1032.21 119.862 1030.96Z" fill="#01758A"/>
<path d="M593.066 563.132C635.882 563.132 678.698 564.029 721.475 562.742C741.264 562.156 737.634 574.333 737.634 585.534C737.634 596.813 740.951 608.521 721.358 608.326C635.765 607.428 550.132 607.584 464.5 608.17C442.135 608.326 449.317 592.09 447.365 581.006C444.985 567.776 450.8 562.663 464.617 562.898C507.433 563.6 550.249 563.171 593.027 563.132H593.066Z" fill="#1D3530"/>
<path d="M593.143 878.827C635.921 878.827 678.737 879.647 721.475 878.476C741.068 877.93 737.751 890.107 737.556 901.308C737.36 912.157 741.966 924.841 721.943 924.646C636.389 923.866 550.795 923.826 465.241 924.685C445.726 924.88 448.77 913.25 448.965 901.854C449.161 890.848 444.906 878.008 464.773 878.515C507.55 879.53 550.327 878.827 593.104 878.827H593.143Z" fill="#1D332F"/>
<path d="M592.402 765.1C550.835 765.1 509.268 764.281 467.739 765.491C451.308 765.959 447.912 759.676 448.771 745.235C449.551 732.668 446.819 721.545 466.803 721.78C551.186 722.794 635.609 722.833 719.992 721.78C740.405 721.506 736.853 733.098 737.712 745.235C738.727 759.48 735.643 766.037 718.977 765.53C676.825 764.242 634.594 765.1 592.363 765.1H592.402Z" fill="#1F2D26"/>
<path d="M613.4 448.507C577.688 448.507 541.936 447.727 506.223 448.82C487.762 449.366 488.933 438.516 488.855 426.223C488.777 414.358 488.23 405.265 505.443 405.46C577.532 406.318 649.66 406.357 721.749 405.46C741.771 405.226 736.775 417.715 737.673 428.642C738.727 441.326 737.087 449.405 720.578 448.859C684.904 447.727 649.152 448.507 613.4 448.507Z" fill="#1E302B"/>
<path d="M174.309 851.196C192.497 851.196 210.686 851.742 228.835 851.04C243.315 850.454 242.925 859.899 241.676 869.032C240.388 878.242 248.935 893.424 229.498 893.541C192.497 893.775 155.497 893.502 118.496 893.658C98.9027 893.736 106.865 879.062 105.694 869.773C104.406 859.626 104.484 850.181 119.823 851.001C137.933 851.938 156.16 851.235 174.348 851.235L174.309 851.196Z" fill="#253028"/>
<path d="M869.267 242.831C863.389 234.167 863.389 224.41 864.544 216.175C868.799 207.433 872.584 198.378 882.654 194.437C892.139 190.729 894.614 191.236 912.177 191.236C923.886 199.042 925.838 199.042 927.789 204.896C929.741 214.653 930.662 211.882 931.481 222.732C932.145 231.006 930.818 239.241 923.948 245.875C907.907 261.525 889.914 260.745 869.189 242.831H869.267Z" fill="#253028"/>
</svg>
