<svg xmlns="http://www.w3.org/2000/svg" width="1284" height="1085" viewBox="0 0 1284 1085" fill="none">
  <path d="M1.77631 718.755C92.1315 718.599 182.448 718.053 272.803 718.716C288.844 718.833 293.528 714.774 293.411 698.383C292.669 588.559 292.942 478.734 293.02 368.91C293.138 214.204 384.625 82.4073 529.076 25.739C573.453 8.33261 618.884 0.800254 665.916 0.683171C765.365 0.409976 864.814 -0.409607 964.225 0.839282C1102.67 2.5565 1227.05 90.6812 1274.24 222.361C1279.84 237.972 1276.19 227.903 1283.61 247.729V351.387C1238.8 351.192 1193.96 351.27 1149.15 350.606C1137.79 350.45 1137.17 353.689 1139.55 364.071C1161.09 458.362 1089.98 529.627 995.683 508.083C979.642 504.415 981.632 513.235 981.632 522.485C981.632 608.268 981.554 694.012 981.671 779.795C981.749 823.779 974.646 866.788 955.794 906.362C901.737 1019.82 810.445 1081.09 685.236 1083.31C515.688 1086.32 346.024 1084.33 176.437 1083.94C104.738 1083.74 50.6813 1052.48 17.3104 988.242C7.0454 968.494 3.10334 946.678 0.527344 924.705C0.956677 856.094 1.38601 787.483 1.77631 718.872V718.755ZM1057.12 351.972C1036.51 351.582 1015.86 351.66 995.293 350.606C982.881 349.943 979.915 355.446 980.305 366.686C980.969 386.668 980.5 406.689 980.5 426.671C980.5 459.064 987.916 466.909 1020.43 469.407C1030.19 470.148 1039.71 469.017 1049.19 466.87C1074.21 461.055 1089.04 443.922 1097.9 421.207C1113.16 382.102 1093.34 348.967 1057.16 351.972H1057.12ZM937.489 343.386C937.879 303.344 938.465 263.301 938.66 223.259C938.855 177.986 938.504 132.714 938.855 87.481C938.933 75.6555 937.801 69.294 922.813 73.431C907.279 77.724 891.589 80.7682 877.89 89.8226C874.377 91.2667 870.552 92.2423 867.351 94.2718C793.857 140.949 774.108 237.816 824.457 308.69C848.734 342.879 882.339 363.524 924.023 370.784C934.913 372.696 940.494 370.667 939.128 358.646C938.543 353.572 938.035 348.499 937.489 343.386ZM1243.92 292.728C1245.24 285.859 1244.74 279.263 1240.44 273.37C1240.01 270.833 1239.54 268.258 1239.11 265.721C1239.27 264.433 1239.74 263.067 1239.47 261.896C1214.72 149.34 1107.93 55.1269 994.278 45.0968C983.662 44.1601 980.227 47.5946 980.266 57.6637C980.383 136.968 980.266 216.273 980.344 295.538C980.344 300.495 979.602 306.544 987.409 306.934C1069.72 307.285 1152 307.598 1234.31 308.144C1246.84 308.222 1245.95 301.08 1243.92 292.728ZM249.892 761.686C186.273 761.491 122.614 761.608 58.9947 760.827C45.5293 760.671 42.7972 765.979 42.9533 778.078C43.5387 820.267 42.9533 862.495 43.2265 904.684C43.5387 954.561 60.2827 995.97 105.168 1022.43C106.573 1023.48 108.017 1024.54 109.422 1025.55C111.569 1026.02 113.715 1026.45 115.862 1026.92C117.54 1028.13 119.218 1029.34 120.897 1030.59C123.668 1031.6 126.439 1032.62 129.21 1033.67C131.084 1036.71 133.816 1037.26 137.016 1036.25C139.592 1036.83 142.168 1037.42 144.705 1038C203.914 1054.9 277.291 1007.09 288.922 943.165C297.47 896.215 291.693 848.679 292.669 801.416C293.567 759.383 292.864 759.344 249.853 761.647L249.892 761.686ZM889.169 406.806C876.641 402.318 864.112 397.83 851.622 393.342C838.664 379.994 823.052 369.808 809.86 356.538C719.27 265.409 740.386 116.166 853.144 53.6048C856.735 51.6144 862.199 51.2632 862.941 43.965C833.824 43.965 805.02 43.965 776.177 43.965C732.619 44.043 689.022 42.521 645.581 44.5114C560.963 48.4141 487.626 81.0023 428.534 141.144C364.134 206.711 335.446 287.576 335.681 379.331C336.071 554.175 335.681 729.02 335.954 903.864C335.993 930.247 330.997 955.147 322.332 979.968C314.331 1002.96 299.773 1021.26 282.482 1038.74C286.151 1040.27 287.244 1041.12 288.337 1041.12C419.635 1040.54 550.933 1043.04 682.192 1039.76C732.189 1044.01 777.035 1027.58 818.017 1001.75C898.146 951.166 937.84 875.881 939.401 782.293C941.392 664.936 939.831 547.501 940.065 430.106C940.065 420.505 936.318 414.651 927.029 414.534C913.797 414.417 902.01 408.367 889.247 406.728L889.169 406.806Z" fill="#253028"/>
</svg>